HIERARCHY
ROOT Hips
{
	OFFSET 4.086592 109.180443 -2.732395
	CHANNELS 6 Xposition Yposition Zposition Xrotation Yrotation Zrotation
	JOINT Chest
	{
		OFFSET 2.951220 13.209930 -1.715280
		CHANNELS 3 Xrotation Yrotation Zrotation
		JOINT Chest2
		{
			OFFSET -1.703825 21.021431 3.776608
			CHANNELS 3 Xrotation Yrotation Zrotation
			JOINT Chest3
			{
				OFFSET -1.026002 14.883667 -0.493864
				CHANNELS 3 Xrotation Yrotation Zrotation
				JOINT Neck
				{
					OFFSET -1.637190 17.145493 1.402729
					CHANNELS 3 Xrotation Yrotation Zrotation
					JOINT Head
					{
						OFFSET -3.090598 9.773407 2.180922
						CHANNELS 3 Xrotation Yrotation Zrotation
						End Site
						{
							OFFSET -3.068980 9.794800 2.114460
						}
					}
				}
				JOINT LeftCollar
				{
					OFFSET 2.856596 13.300629 4.091159
					CHANNELS 3 Xrotation Yrotation Zrotation
					JOINT LeftUpArm
					{
						OFFSET 15.091459 7.600235 -4.794132
						CHANNELS 3 Xrotation Yrotation Zrotation
						JOINT LeftLowArm
						{
							OFFSET 22.117287 23.374695 10.206716
							CHANNELS 3 Xrotation Yrotation Zrotation
							JOINT LeftHand
							{
								OFFSET 13.312321 25.591339 8.295317
								CHANNELS 3 Xrotation Yrotation Zrotation
								End Site
								{
									OFFSET 2.909485 5.593140 1.812984
								}
							}
						}
					}
				}
				JOINT RightCollar
				{
					OFFSET -5.519279 12.524277 3.806398
					CHANNELS 3 Xrotation Yrotation Zrotation
					JOINT RightUpArm
					{
						OFFSET -16.339262 -5.133957 -3.894549
						CHANNELS 3 Xrotation Yrotation Zrotation
						JOINT RightLowArm
						{
							OFFSET -19.849497 -15.036118 22.795776
							CHANNELS 3 Xrotation Yrotation Zrotation
							JOINT RightHand
							{
								OFFSET 11.612671 18.311584 20.755419
								CHANNELS 3 Xrotation Yrotation Zrotation
								End Site
								{
									OFFSET 2.538055 4.002167 4.536312
								}
							}
						}
					}
				}
			}
		}
	}
	JOINT LeftUpLeg
	{
		OFFSET 9.521928 -1.795761 2.554854
		CHANNELS 3 Xrotation Yrotation Zrotation
		JOINT LeftLowLeg
		{
			OFFSET 2.080756 -47.232380 2.960315
			CHANNELS 3 Xrotation Yrotation Zrotation
			JOINT LeftFoot
			{
				OFFSET -2.651349 -42.755077 -12.866346
				CHANNELS 3 Xrotation Yrotation Zrotation
				JOINT LeftToe
				{
					OFFSET -1.372435 -16.632599 16.764038
					CHANNELS 3 Xrotation Yrotation Zrotation
					End Site
					{
						OFFSET 0.704861 -2.343386 23.528082
					}
				}
			}
		}
	}
	JOINT RightUpLeg
	{
		OFFSET -9.521975 1.795570 -2.554830
		CHANNELS 3 Xrotation Yrotation Zrotation
		JOINT RightLowLeg
		{
			OFFSET -32.832901 9.564842 32.779949
			CHANNELS 3 Xrotation Yrotation Zrotation
			JOINT RightFoot
			{
				OFFSET -8.106422 -42.321495 11.989841
				CHANNELS 3 Xrotation Yrotation Zrotation
				JOINT RightToe
				{
					OFFSET -13.208370 -3.325752 19.339985
					CHANNELS 3 Xrotation Yrotation Zrotation
					End Site
					{
						OFFSET -13.740273 12.020195 15.042477
					}
				}
			}
		}
	}
}
MOTION
Frames: 7
Frame Time: 0.033333
8.454893 109.576385 -5.201336 1.826444 -8.116721 -2.494760 2.188118 -0.998386 5.727537 3.489581 0.632748 0.741186 -3.152924 5.187394 -1.432844 -1.839375 3.722015 -0.635839 -0.000002 0.000003 -0.000001 3.388062 1.610489 3.509773 7.143486 0.411700 5.029971 0.233970 -2.174393 31.109896 -0.000000 0.000003 -0.000006 4.714908 5.475961 0.990979 -0.853109 6.467926 -12.579460 20.990623 27.153315 -9.945239 0.000004 -0.000002 -0.000001 -4.257728 -0.328126 1.974654 -2.227712 0.739087 -3.497161 -2.963982 7.953040 5.620839 -0.000001 0.000001 -0.000001 -9.910507 -1.849014 -15.175649 -2.151935 5.664687 4.447297 2.747856 -1.095048 0.571609 0.000004 0.000004 -0.000003 
8.465857 109.536453 -5.220204 1.682970 -8.075162 -2.503168 2.538452 -1.014282 5.744388 3.241382 0.570804 0.722894 -3.222809 5.061865 -1.357345 -1.753727 3.883319 -0.772777 -0.000003 0.000001 -0.000003 3.515581 1.285058 3.607217 7.026770 0.470552 4.747126 0.369693 -2.300853 31.517491 -0.000002 0.000001 -0.000003 4.653665 5.452353 1.118124 -0.920016 6.369584 -12.380568 21.888777 27.831785 -10.339716 0.000003 0.000004 -0.000000 -4.268061 -0.300381 1.962846 -2.095090 0.729637 -3.526805 -2.794115 7.844658 5.505885 0.000000 0.000000 0.000001 -9.966390 -1.510376 -14.959120 -1.753488 4.945416 4.008880 2.805441 -0.164637 0.317342 0.000005 0.000001 -0.000002 
8.480595 109.499657 -5.240966 1.028998 -7.876159 -2.444097 4.209599 -1.088711 5.444350 2.757200 0.478673 0.714346 -3.499636 5.193567 -1.187277 -2.196191 3.783839 -0.786381 -0.000003 0.000003 -0.000002 3.326384 1.625593 3.542829 6.997131 0.489281 4.924854 0.028712 -2.042459 31.183133 -0.000002 0.000003 -0.000001 4.705312 5.640742 1.080005 -1.069310 6.301131 -12.796762 21.570332 27.263615 -10.091529 0.000003 0.000003 -0.000002 -3.628882 -0.344993 1.833328 -2.230696 0.690531 -3.572758 -2.517219 7.870838 5.456457 -0.000000 0.000001 -0.000001 -9.813325 -1.493186 -14.747557 -0.790440 3.666461 3.411347 2.603436 0.775061 -0.098337 0.000008 0.000006 0.000001 
8.497916 109.461098 -5.263611 0.975729 -8.072464 -2.410468 4.513173 -1.107670 5.395398 2.365144 0.397404 0.707928 -3.240535 5.534193 -1.145421 -2.272066 3.759337 -0.888407 -0.000000 0.000001 -0.000002 3.367610 1.474152 3.584713 6.570359 0.687160 5.070630 0.241306 -2.211741 30.795151 0.000001 -0.000000 -0.000007 4.569108 5.215852 1.299865 -1.365267 6.471449 -12.682095 22.566831 27.989156 -10.313354 0.000006 0.000001 0.000002 -3.517025 -0.363475 1.758633 -2.457772 0.750333 -3.534715 -2.401257 8.293170 5.670783 0.000001 0.000001 -0.000000 -9.944708 -1.476243 -14.883483 -0.854850 3.491377 3.275223 2.582359 1.098090 -0.285340 0.000002 0.000001 0.000001 
8.511562 109.426285 -5.285541 1.163838 -8.401899 -2.321909 4.318041 -1.093826 5.209198 2.566580 0.480265 0.628791 -3.310742 5.773513 -0.947895 -2.661280 3.619164 -0.891616 -0.000000 0.000003 -0.000000 3.109424 1.776293 3.515119 6.899192 0.161691 5.260849 -0.057204 -2.025674 30.469433 -0.000000 -0.000001 -0.000007 4.530203 5.191031 1.432081 -1.477675 6.399632 -12.836397 22.822884 27.550910 -10.161179 0.000001 0.000003 -0.000001 -3.796158 -0.335782 1.762894 -2.496692 0.757589 -3.636759 -2.252356 8.501223 5.844953 0.000001 0.000000 0.000001 -10.225324 -0.999632 -14.845281 -0.803802 3.120748 2.982316 2.690709 1.404401 -0.367430 0.000003 0.000003 0.000001 
8.529439 109.395187 -5.306346 1.033779 -8.204060 -2.420533 4.511579 -1.089947 5.303446 2.491227 0.396384 0.704425 -3.286911 5.697526 -0.959767 -2.726464 3.519959 -0.935097 0.000000 0.000001 -0.000002 3.045709 1.660431 3.398668 6.736739 0.119351 5.357169 -0.101183 -2.170018 30.520728 0.000001 -0.000001 -0.000004 4.409359 4.757328 1.702809 -1.888874 6.737743 -12.854149 23.762343 27.630132 -10.233031 0.000002 0.000003 0.000001 -3.718311 -0.316807 1.727396 -2.198289 0.727511 -3.448575 -2.615597 8.036566 5.558213 0.000000 0.000000 -0.000000 -10.080406 -1.241702 -14.823484 -1.039528 3.002531 2.740074 2.741506 0.939302 -0.183157 0.000002 0.000001 -0.000002 
8.551622 109.375908 -5.333764 1.247224 -8.244669 -2.322364 4.492167 -1.078236 5.213988 2.292941 0.376149 0.762288 -3.013581 5.483687 -1.111427 -2.703508 3.340251 -0.746353 0.000001 -0.000001 -0.000003 3.047347 1.831283 3.485522 6.640918 0.544582 5.557767 0.257590 -2.294080 31.084526 -0.000002 0.000002 -0.000003 4.634714 5.582253 1.405867 -1.513124 6.150555 -13.393777 21.574105 27.660946 -10.037302 0.000005 0.000002 0.000003 -3.920613 -0.389897 1.589218 -2.307951 0.726232 -3.355538 -2.398467 7.844452 5.472656 0.000001 0.000001 0.000001 -10.154725 -1.331035 -15.099007 -0.997048 2.930659 2.713827 2.986061 1.319955 -0.296076 0.000006 0.000002 -0.000001 
